<svg width="100" height="75" viewBox="0 0 100 75" fill="none" xmlns="http://www.w3.org/2000/svg">
<path d="M84.125 12.5H16.6667C12.0833 12.5 8.37499 15.3125 8.37499 18.75V31.25C12.9583 31.25 16.6667 34.0625 16.6667 37.5C16.6667 40.9375 12.9583 43.75 8.33333 43.75V56.25C8.33333 59.6875 12.0833 62.5 16.6667 62.5H83.3333C87.9167 62.5 91.6667 59.6875 91.6667 56.25V18.75C91.6667 15.3125 88.2917 12.5 84.125 12.5ZM73.875 41.5625L36.9583 48.9375L30.0417 39.9375L33.9167 39.1562L39.1667 42.25L49.125 40.25L39.125 27.25L44.9583 26.0625L61.6667 37.75L71.8333 35.7188C73.9583 35.2812 76.1667 36.25 76.75 37.8437C77.2917 39.4375 76.0417 41.0938 73.875 41.5625Z" fill="#3647DE"/>
</svg>
